<?xml version="1.0" encoding="utf-8"?>
<!-- Generator: $$$/GeneralStr/196=Adobe Illustrator 27.6.0, SVG Export Plug-In . SVG Version: 6.00 Build 0)  -->
<svg version="1.1" id="圖層_1" xmlns="http://www.w3.org/2000/svg" xmlns:xlink="http://www.w3.org/1999/xlink" x="0px" y="0px"
	 viewBox="0 0 500 80" style="enable-background:new 0 0 500 80;" xml:space="preserve">
<style type="text/css">
	.st0{fill:#303030;}
	.st1{fill:#F9BBBB;}
	.st2{fill:#B0EFAC;}
	.st3{fill:#465584;}
	.st4{enable-background:new    ;}
</style>
<g>
	<path class="st0" d="M190.6,219v8.4c0,2-0.3,3-1.4,3.7c-1.1,0.7-2.7,0.9-5,0.8c-0.1-1-0.6-2.8-1.1-3.9c1.3,0,2.6,0,3,0
		s0.6-0.1,0.6-0.6v-7.2c-1.2,0.3-2.3,0.6-3.3,0.9l-1-4.1c1.2-0.3,2.7-0.6,4.3-1v-6.4h-3.9v-4h3.9v-6.8h3.9v6.8h3.6v4h-3.6v5.3
		l3.2-0.9l0.6,3.9L190.6,219z M206.9,228.1c0.8,0.1,1.6,0.1,2.5,0.1c1.2,0,5.7,0,7.2,0c-0.5,0.9-1,2.7-1.2,3.7h-6.3
		c-4.7,0-8.4-0.9-10.8-5.2c-0.9,2.3-2.2,4.2-3.8,5.7c-0.6-0.7-2.3-2-3.1-2.6c3-2.4,4.5-6.4,5-11.3l3.9,0.5c-0.2,1.3-0.4,2.5-0.7,3.6
		c0.8,2.1,1.8,3.4,3.1,4.2v-9.4h-8.5V214h21.3v3.5h-8.8v3.2h6.9v3.3h-6.9v4.1H206.9z M213.9,212.3h-17.7v-12.4h17.7V212.3z
		 M209.8,202.9h-9.7v1.8h9.7V202.9z M209.8,207.5h-9.7v1.8h9.7V207.5z"/>
	<path class="st0" d="M259.1,224.4h-8.3c2.8,1.4,6.2,3.4,8.1,4.9l-3.3,3c-1.9-1.7-5.9-4.2-9.1-5.8l2.4-2.1h-4.1v8.1h-4.3v-8.1h-6
		l4.2,1.4c-2.1,2.4-5.6,4.7-8.7,6c-0.8-0.8-2.6-2.2-3.6-2.8c3.1-1,6.3-2.7,7.9-4.6h-7.8v-3.5h14v-2.5h4.3v2.5h14.3L259.1,224.4
		L259.1,224.4z M254.6,220c-2.6-1-6.1-2.1-10.2-3.1c-4,1.7-9.4,2.4-16.5,2.8c-0.3-1.3-0.9-2.6-1.5-3.5c4.1-0.1,7.6-0.4,10.6-0.9
		c-2-0.4-4-0.8-6.2-1.1c0.9-0.8,2-1.8,3-3h-7.2v-3.3h10.1c0.9-1.1,1.6-2.1,2.3-3.1h-7.8v2h-4v-5.5H240c-0.3-0.5-0.5-1-0.8-1.5
		l4.5-0.9c0.5,0.7,1,1.6,1.4,2.4H258v5.5h-4v-2h-13.2l2.6,0.8c-0.6,0.8-1.2,1.5-1.8,2.3h6.9c0.3-0.7,0.6-1.4,0.9-2.2l4.2,0.8
		c-0.1,0.5-0.3,0.9-0.5,1.4h5.7v3.3h-7.3c-0.8,1.2-1.7,2.3-2.7,3.1c3.9,0.9,7.4,1.9,10.1,2.9L254.6,220z M238.4,211.2
		c-0.3,0.3-0.6,0.6-0.9,0.9c2,0.3,4,0.7,5.9,1.1c1-0.6,2-1.2,2.8-2H238.4z"/>
	<path class="st0" d="M275.9,215.9c-1.4-1.2-4.4-2.9-6.7-3.9l2.3-3.2c2.2,0.9,5.3,2.3,6.8,3.5L275.9,215.9z M270.5,229.1
		c1.9-2.7,4.7-7.2,6.8-11.3l3.2,2.9c-1.9,3.7-4.2,7.8-6.3,11.3L270.5,229.1z M278,206.3c-1.4-1.2-4.4-3-6.7-4l2.3-3.2
		c2.3,0.9,5.3,2.5,6.8,3.6L278,206.3z M298.6,232.4c-0.3-0.9-0.7-2.1-1.3-3.2c-12,1.4-13.8,1.7-15,2.3c-0.3-0.9-1-3.1-1.5-4.3
		c0.8-0.3,1.5-1,2.3-2.3c0.6-1,2.4-4.1,3.8-7.7h-6.8v-4h8.5v-5.1h-7.1V204h7.1v-5.4h4.4v5.4h7.3v4.1H293v5.1h8.7v4h-9.8
		c-1.4,3.3-3.2,6.5-5,9.2l8.5-0.9c-0.8-1.3-1.6-2.6-2.4-3.7l3.5-1.7c2.4,3.1,5,7.3,5.9,10.2L298.6,232.4z"/>
	<path class="st0" d="M335.9,216.5v1.8h8.2v3.5h-8.2v1.9h9.7v3.7h-9.7v5h-4.1v-5h-9v-3.7h9v-1.9h-7.6v-3.5h7.6v-1.8h-7.1V213h7.1
		v-1.9h-8.4v-1.9c-0.7,1.1-1.5,2.3-2.4,3.5v19.7h-4v-15c-1,1.1-2.1,2.1-3.1,2.9c-0.3-0.9-1.4-3.2-2-4.3c3-2.2,6.4-5.8,8.4-9.3
		l3.1,1.3v-0.5h8.4v-1.8h-6.9v-3.5h6.9v-3.5h4.1v3.5h7.9v5.3h2.2v3.6h-2.2v5.3L335.9,216.5L335.9,216.5z M323.5,200.5
		c-2.3,3.3-5.9,6.8-9.2,9c-0.5-0.9-1.5-2.7-2.2-3.5c2.8-1.8,5.8-4.7,7.3-7.1L323.5,200.5z M335.9,207.5h3.8v-1.8h-3.8V207.5z
		 M335.9,213.1h3.8v-1.9h-3.8V213.1z"/>
	<path class="st0" d="M367,226c2.3-0.3,4.6-0.5,6.9-0.8l0.1,3.7c-6.2,0.8-12.9,1.5-17.6,2l-0.5-3.9c2-0.2,4.5-0.4,7.2-0.7v-2.7h-5.4
		v-3.5h5.4v-2.4H357v-3.5h3.9c-0.5-1.1-1.5-2.4-2.3-3.4l1.8-1h-4.5v-3.5h4.9v-1.7l-1.8,1.3c-0.5-1.2-1.8-3-3-4.3l2.6-1.7
		c0.7,0.8,1.5,1.7,2.2,2.6v-3.9h3.3v7.6h1.7v-7.6h3.4v4.2c0.8-1,1.5-2,1.9-2.8l3.3,1.8c-1.4,1.5-3,3.1-4.1,4.1l-1.2-0.8v1h4.7v3.5
		h-4.7l2.4,0.9c-0.6,1.2-1.3,2.4-1.9,3.6h3.2v3.5H367v2.4h5.4v3.5H367V226z M362,210c0.9,1,1.7,2.3,2.1,3.2l-2.1,1.2h3.9
		c0.7-1.3,1.5-3,2-4.4H362z M388.6,211.9h-2.7v15.7c0,2.2-0.4,3.3-1.8,4c-1.3,0.7-3.2,0.9-6,0.8c-0.2-1.1-0.9-3-1.4-4.1
		c1.8,0.1,3.6,0.1,4.2,0.1s0.8-0.2,0.8-0.8v-15.7H374v-4h7.7v-9h4.1v9h2.7L388.6,211.9L388.6,211.9z M377,223.2
		c-0.2-2.1-1.3-5.5-2.6-8.1l3.5-1.2c1.3,2.5,2.6,5.8,2.8,8L377,223.2z"/>
	<path class="st0" d="M398.7,230.8c1.5-1.8,3.3-4.7,4.4-7.4l4.1,1.2c-1.2,2.7-2.9,5.9-4.4,8L398.7,230.8z M404.4,223.1h-4v-22.9
		h11.4v8.9c4.1-1.1,5.5-2.8,6.2-5.3h-5.1v-3.7h18.5c0,0,0,0.9-0.1,1.4c-0.3,4.9-0.6,7.2-1.4,8.1c-0.7,0.8-1.5,1-2.5,1.2
		c-0.9,0.1-2.5,0.1-4.1,0.1c-0.1-1.1-0.5-2.5-1-3.4c1.4,0.1,2.6,0.1,3.1,0.1s0.8-0.1,1.1-0.4c0.3-0.3,0.5-1.3,0.7-3.3h-5
		c-0.8,3.7-2.5,6.4-7.3,8.1h15.4v10.7H414v-10.4h-0.1c-0.4-0.9-1.2-2.2-2.1-3v12.1h-7.4V223.1L404.4,223.1z M404.4,203.9v4.7h3.5
		v-4.7H404.4z M407.9,217.6v-5.2h-3.5v5.2H407.9z M413.1,224.3c0.5,2.3,0.9,5.4,0.9,7.3l-4.2,0.6c0-1.9-0.3-5-0.7-7.5L413.1,224.3z
		 M420.8,224c0.9,2.3,1.8,5.3,2.1,7.3l-4.3,0.9c-0.2-1.9-1-5-1.9-7.5L420.8,224z M418,219.2h8.1v-3.9H418V219.2z M428,223.1
		c1.5,2.3,3.3,5.5,4.2,7.5l-4.1,1.8c-0.7-2-2.4-5.3-3.9-7.8L428,223.1z"/>
	<path class="st0" d="M474.1,219.3c-2,1.5-4.4,3-6.4,4.2c2.2,1.9,4.9,3.4,8.1,4.3c-0.9,0.9-2.2,2.6-2.8,3.8
		c-7.5-2.6-11.9-7.8-14.6-15.2c-1.4,1.4-3,2.8-4.6,4v6.1l7.8-2.1c0.1,1.2,0.4,2.9,0.7,3.8c-10.3,3.1-11.9,3.6-13,4.2
		c-0.3-1-1.1-2.9-1.8-3.8c0.8-0.4,1.8-1.3,1.8-2.8v-2.6c-1.7,0.9-3.3,1.6-4.9,2.2c-0.6-1-1.9-2.6-2.8-3.5c4-1.2,8.3-3.4,11.5-5.9
		h-10.2v-3.6h13.6v-2h-10.3V207h10.3v-2h-12.1v-3.6h12.1v-2.6h4.3v2.6h12.5v3.6h-12.5v1.9h11.1v3.4h-11.1v2h13.8v3.6h-12.1
		c0.7,1.8,1.7,3.4,2.8,4.9c1.9-1.3,4-2.9,5.3-4.2L474.1,219.3z"/>
</g>
<text transform="matrix(1 0 0 1 205.5848 157.3808)" style="font-family:'NotoSansCJKtc-Light-B5pc-H'; font-size:38px; letter-spacing:2;">提案法律對照表</text>
<text transform="matrix(1 0 0 1 21.5158 157.3807)" style="font-family:'Silom'; font-size:34.3165px;">law</text>
<text transform="matrix(1 0 0 1 104.8802 157.7238)" style="font-family:'Silom'; font-size:34.3165px;">diff</text>
<g>
	<path class="st1" d="M-14,151.5h-25.9c-3.4,0-6.1-2.7-6.1-6.1V127c0-3.4,2.7-6.1,6.1-6.1H-14c3.4,0,6.1,2.7,6.1,6.1v18.3
		C-7.9,148.7-10.7,151.5-14,151.5z"/>
</g>
<g>
	<path class="st2" d="M-0.1,165.1h-26.2c-3.4,0-6.1-2.7-6.1-6.1v-18c0-3.4,2.7-6.1,6.1-6.1h26.2c3.4,0,6.1,2.7,6.1,6.1v18
		C6,162.4,3.3,165.1-0.1,165.1z"/>
</g>
<g>
	<path class="st1" d="M95.5,50.2H9.9c-3.4,0-6.1-2.7-6.1-6.1V24.6c0-3.4,2.7-6.1,6.1-6.1h85.6c3.4,0,6.1,2.7,6.1,6.1v19.5
		C101.6,47.4,98.9,50.2,95.5,50.2z"/>
</g>
<g>
	<path class="st2" d="M174,72.7H89.2c-3.4,0-6.1-2.7-6.1-6.1v-18c0-3.4,2.7-6.1,6.1-6.1H174c3.4,0,6.1,2.7,6.1,6.1v18
		C180.1,70,177.4,72.7,174,72.7z"/>
</g>
<g>
	<path class="st3" d="M89.2,42.5c-3.4,0-6.1,2.7-6.1,6.1v1.6h12.4c3.4,0,6.1-2.7,6.1-6.1v-1.6H89.2z"/>
</g>
<g class="st4">
	<path d="M14.7,55.9V30.2h5.7v25.7H14.7z"/>
	<path d="M37.6,44.5v-2.9c0-0.8-0.3-1.4-0.8-2c-0.6-0.6-1.2-0.8-2-0.8H32c-1.7,0-2.6,0.9-2.8,2.8h-2.9c0.5-3.8,2.4-5.7,5.7-5.7h5.7
		c1.6,0,2.9,0.6,4,1.7s1.7,2.5,1.7,4v14.3h-5.7v-2.8c-0.2,1.9-1.2,2.8-2.9,2.8H32c-1.6,0-2.9-0.6-4-1.7c-1.1-1.1-1.7-2.5-1.7-4
		c0-1.6,0.6-2.9,1.7-4s2.5-1.7,4-1.7C32,44.5,37.6,44.5,37.6,44.5z M37.6,47.3h-2.9c-0.8,0-1.4,0.3-2,0.8c-0.6,0.6-0.8,1.2-0.8,2
		s0.3,1.5,0.8,2c0.6,0.6,1.2,0.9,2,0.9s1.5-0.3,2-0.9c0.6-0.6,0.8-1.2,0.8-2L37.6,47.3L37.6,47.3z"/>
	<path d="M49,35.9h5.7v17.2h2.8c0.8,0,1.5-0.3,2-0.9c0.6-0.6,0.8-1.2,0.8-2V35.9H66v17.2h2.9c0.8,0,1.4-0.3,2-0.9
		c0.6-0.6,0.8-1.2,0.8-2V35.9h5.7v10.2c0,2.7-1,5-2.9,6.9s-4.2,2.9-6.9,2.9h-7.4V55c-1.1,0.6-2.4,0.9-4,0.9h-7.4v-20H49z"/>
</g>
<g class="st4">
	<path d="M125.2,55.9h-5.7v-2.8c-0.2,1.9-1.2,2.8-2.9,2.8h-2.8c-1.6,0-2.9-0.6-4-1.7c-1.1-1.1-1.7-2.5-1.7-4v-8.6
		c0-1.6,0.6-2.9,1.7-4s2.5-1.7,4-1.7h5.7v-5.7h5.7C125.2,30.2,125.2,55.9,125.2,55.9z M119.5,38.7h-2.9c-0.8,0-1.4,0.3-2,0.8
		c-0.6,0.6-0.8,1.2-0.8,2v8.6c0,0.8,0.3,1.5,0.8,2c0.6,0.6,1.2,0.9,2,0.9s1.5-0.3,2-0.9c0.6-0.6,0.8-1.2,0.8-2L119.5,38.7
		L119.5,38.7z"/>
	<path d="M130.9,33v-2.8h5.7V33H130.9z M130.9,55.9v-20h5.7v20H130.9z"/>
	<path d="M145.2,55.9V38.7h-2.9v-2.8h2.9v-0.3c0-1.5,0.5-2.8,1.6-3.8c1.1-1.1,2.4-1.6,3.8-1.6h6V33h-3.1c-0.7,0-1.3,0.3-1.8,0.8
		s-0.8,1.1-0.8,1.8v0.3h2.9v2.8h-2.9v17.2C150.9,55.9,145.2,55.9,145.2,55.9z"/>
	<path d="M162.4,55.9V38.7h-2.9v-2.8h2.9v-0.3c0-1.5,0.5-2.8,1.6-3.8c1.1-1.1,2.4-1.6,3.8-1.6h6V33h-3.1c-0.7,0-1.3,0.3-1.8,0.8
		s-0.8,1.1-0.8,1.8v0.3h2.9v2.8h-2.9v17.2C168.1,55.9,162.4,55.9,162.4,55.9z"/>
</g>
<g class="st4">
	<path d="M210.4,41.7c-1.4,0.5-2.8,0.9-4.2,1.4v10.6c0,1.6-0.3,2.3-1.3,2.7c-0.9,0.5-2.3,0.6-4.7,0.5c-0.1-0.7-0.5-1.8-0.8-2.6
		c1.6,0,3.1,0,3.5,0c0.5,0,0.7-0.2,0.7-0.7V44c-1.6,0.5-3,1-4.4,1.4l-0.7-2.7c1.4-0.3,3.2-0.9,5.1-1.5v-8.3h-4.7v-2.6h4.7v-7.6h2.6
		v7.6h4.2v2.6h-4.2v7.5l3.8-1.2L210.4,41.7z M223,54c1.1,0.2,2.3,0.2,3.6,0.2c0.9,0,6.1,0,7.3,0c-0.4,0.6-0.7,1.8-0.8,2.5h-6.6
		c-5.5,0-9.5-1-11.9-6.3c-1.1,2.8-2.5,5.2-4.6,7c-0.4-0.5-1.5-1.3-2.1-1.7c3.4-2.7,5.1-6.9,5.7-12.5l2.6,0.3
		c-0.2,1.4-0.4,2.8-0.8,4.1c1.1,3.2,2.8,4.9,4.9,5.9v-12h-9.3v-2.4h21.7v2.4H223v4.4h7.9V48H223V54z M230.6,36.2h-17.8V23.9h17.8
		V36.2z M227.9,26h-12.5v3h12.5V26z M227.9,31h-12.5v3h12.5V31z"/>
	<path d="M276.9,45.6V48h-15.7v9.3h-2.8V48H243v-2.4h15.4v-3.2h2.8v3.2H276.9z M273.3,43.9c-3.1-1.2-7.4-2.3-12.3-3.5
		c-4.1,1.7-9.5,2.6-16.5,3.1c-0.3-0.8-0.6-1.7-1.1-2.4c5.2-0.2,9.4-0.7,12.8-1.6c-2.6-0.5-5.2-1-8-1.4c1.2-1.1,2.5-2.3,3.8-3.7h-8.5
		v-2.3H254c1.1-1.3,2.2-2.7,3-3.9l2.7,0.8c-0.7,1-1.5,2.1-2.4,3.1h9.3c0.5-0.8,0.8-1.7,1.1-2.6l2.7,0.6c-0.2,0.7-0.5,1.3-0.8,2h6.7
		v2.3h-8c-1.2,1.8-2.7,3.2-4.5,4.4c4.6,1,8.8,2.1,12,3.2L273.3,43.9z M255.3,49.7c-2.3,2.6-6.2,4.9-9.5,6.4
		c-0.5-0.5-1.6-1.5-2.3-1.9c3.4-1.3,7-3.2,9-5.4L255.3,49.7z M246.7,30.9h-2.7v-5.4h14.6c-0.5-0.8-1-1.6-1.4-2.2l2.8-0.7
		c0.6,0.8,1.4,2,1.9,2.9h13.9v5.4h-2.7v-3h-26.5V30.9z M255.2,34.5c-0.8,0.8-1.6,1.6-2.3,2.3c2.5,0.4,5,0.8,7.4,1.3
		c2-1,3.6-2.2,4.9-3.6H255.2z M266.1,48.5c3.4,1.5,7.8,4,10.1,5.9l-2.1,2.1c-2.1-1.9-6.5-4.5-9.9-6.1L266.1,48.5z"/>
	<path d="M293.3,39.4c-1.6-1.3-4.6-3-7-4.1l1.5-2.1c2.4,1,5.5,2.6,7.1,3.8L293.3,39.4z M287.6,54.9c2-2.9,5-7.9,7.2-12.2l2.1,1.9
		c-2,4-4.6,8.7-6.9,12.2L287.6,54.9z M289.9,23c2.5,1,5.6,2.7,7.2,4l-1.6,2.4c-1.5-1.3-4.6-3.1-7.1-4.3L289.9,23z M317.7,57.2
		c-0.4-1.1-1-2.4-1.7-3.8c-14.1,1.7-15.7,2-16.7,2.5c-0.2-0.6-0.6-2.1-1-2.8c0.7-0.2,1.5-1.1,2.4-2.5c0.8-1.1,3.3-5.2,5.2-9.4h-8.5
		v-2.7h9.8v-6.8h-8.1v-2.7h8.1v-6.5h2.8v6.5h8.4v2.7h-8.4v6.8h10v2.7h-10.7c-2,4-4.3,8.1-6.7,11.2l12-1.3c-1.1-1.7-2.2-3.4-3.4-4.9
		l2.3-1.1c2.7,3.3,5.5,7.8,6.6,10.8L317.7,57.2z"/>
	<path d="M341,32c-0.9,1.6-1.9,3.2-3.1,4.7v20.6h-2.7V39.8c-1.4,1.6-2.8,3-4.3,4.1c-0.3-0.6-1-2-1.5-2.7c3.3-2.5,6.9-6.4,9.1-10.3
		L341,32z M340.7,23.8c-2.2,3.3-5.8,6.8-9.1,9c-0.3-0.6-1-1.7-1.5-2.3c3-1.9,6.3-5.1,7.9-7.8L340.7,23.8z M353.5,40.3v3h8.9v2.4
		h-8.9v3.2h10.8v2.5h-10.8v5.9h-2.8v-5.9h-10.2v-2.5h10.2v-3.2h-8.5v-2.4h8.5v-3h-8v-2.4h8v-3.2h-9.7v-2.5h9.7V29h-7.9v-2.4h7.9v-4
		h2.8v4h8.4v5.6h2.8v2.5h-2.8v5.6H353.5z M353.5,32.2h5.7V29h-5.7V32.2z M353.5,37.9h5.7v-3.2h-5.7V37.9z"/>
	<path d="M408.1,35.4h-3.6v18.4c0,1.7-0.5,2.5-1.6,3c-1.1,0.5-2.9,0.5-6,0.5c-0.2-0.7-0.6-1.9-1-2.7c2.3,0.1,4.3,0.1,4.9,0
		c0.6,0,0.9-0.2,0.9-0.9V35.4h-9v-2.2h-18.8v-2.4h5.8v-1.9l-1.8,1.2c-0.6-1.4-2.1-3.5-3.5-5.1l1.8-1.1c1.4,1.4,2.8,3.4,3.5,4.8v-6
		h2.3v8.1h2.9v-8.1h2.3v6.2c1.1-1.4,2.7-3.5,3.5-4.9l2.3,1.3c-1.4,1.7-3,3.7-4.2,5l-1.5-0.9v1.6h5.7v2h8.8v-10h2.7v10h3.6V35.4z
		 M384.8,51.6c2.6-0.4,5.3-0.7,8-1.1l0.1,2.5c-6.6,1-13.7,1.9-18.5,2.6l-0.4-2.7c2.3-0.3,5.1-0.6,8.2-1v-4.5h-6v-2.4h6v-3.9h-7v-2.4
		h9.8c0.9-1.6,2-3.8,2.5-5.4l2.5,0.9c-0.8,1.5-1.7,3.2-2.5,4.5h4.3v2.4h-7v3.9h6.2v2.4h-6.2V51.6z M379.2,33.3c1.2,1.3,2.5,3,3,4.3
		l-2.1,1.2c-0.5-1.3-1.7-3.1-2.9-4.4L379.2,33.3z M397.1,47.9c-0.4-2.3-1.8-5.9-3.3-8.7l2.4-0.8c1.6,2.7,3.1,6.3,3.5,8.6L397.1,47.9
		z"/>
	<path d="M417.5,56.2c1.7-1.9,3.7-5,5-7.8l2.7,0.8c-1.3,2.8-3.2,6.1-4.9,8.2L417.5,56.2z M422,47.8h-2.7V24.2h11v21.6H422V47.8z
		 M422,26.8v6.6h5.7v-6.6H422z M427.7,43.3v-7.4H422v7.4H427.7z M431.3,49.3c0.5,2.4,0.9,5.5,1,7.4l-2.8,0.4c0-1.9-0.3-5.1-0.8-7.6
		L431.3,49.3z M441.1,26.7c-0.9,4.6-2.9,7.6-8.7,9.4c-0.3-0.6-1-1.6-1.5-2.1c4.9-1.3,6.7-3.7,7.5-7.3H432v-2.5h18.7
		c0,0,0,0.7-0.1,1.1c-0.3,5.5-0.7,7.7-1.5,8.6c-0.6,0.6-1.2,0.8-2.2,0.9c-0.9,0.1-2.5,0.1-4.3,0c-0.1-0.7-0.3-1.6-0.8-2.3
		c1.7,0.2,3.2,0.2,3.8,0.2c0.6,0,1-0.1,1.2-0.3c0.5-0.5,0.8-2,1-5.5H441.1z M449.6,47h-16.5V36.6h16.5V47z M446.8,38.9h-11.1v5.8
		h11.1V38.9z M439.4,48.9c1,2.4,2.1,5.5,2.5,7.4l-2.8,0.7c-0.4-1.9-1.3-5.2-2.3-7.6L439.4,48.9z M447,48.2c1.8,2.5,4,5.8,4.9,8
		l-2.7,1.2c-0.9-2.1-3-5.6-4.7-8.1L447,48.2z"/>
	<path d="M493.8,42.9c-2.2,1.9-4.9,3.8-7.3,5.3c2.6,2.5,5.8,4.3,9.5,5.4c-0.6,0.6-1.4,1.7-1.9,2.4c-7.8-2.6-13.1-8.3-16-16.3
		c-1.6,1.8-3.7,3.5-5.9,5v8.4l9.2-2.8c0.1,0.8,0.3,1.9,0.5,2.4c-10.5,3.4-11.9,3.8-12.8,4.4c-0.2-0.7-0.8-1.9-1.2-2.6
		c0.6-0.3,1.4-1,1.4-2.5v-5.6c-2.2,1.3-4.4,2.3-6.5,3.1c-0.4-0.7-1.2-1.7-1.8-2.3c4.7-1.5,10.1-4.4,13.6-7.6H462v-2.4h14.9v-3.4
		h-11.5v-2.4h11.5v-3.2h-13.4V26h13.4v-3.4h2.8V26h13.8v2.4h-13.8v3.2h12.1v2.4h-12.1v3.4h15v2.4h-13.9c1,2.5,2.4,4.7,4,6.7
		c2.3-1.6,4.9-3.6,6.6-5.2L493.8,42.9z"/>
</g>
</svg>
