<?xml version="1.0" encoding="utf-8"?>
<!-- Generator: $$$/GeneralStr/196=Adobe Illustrator 27.6.0, SVG Export Plug-In . SVG Version: 6.00 Build 0)  -->
<svg version="1.1" id="圖層_1" xmlns="http://www.w3.org/2000/svg" xmlns:xlink="http://www.w3.org/1999/xlink" x="0px" y="0px"
	 viewBox="0 0 500 80" style="enable-background:new 0 0 500 80;" xml:space="preserve">
<style type="text/css">
	.st0{fill:#F9BBBB;}
	.st1{fill:#B0EFAC;}
	.st2{fill:#465584;}
	.st3{enable-background:new    ;}
</style>
<g>
	<path class="st0" d="M92.7,50.6H7.1c-3.4,0-6.1-2.7-6.1-6.1V25c0-3.4,2.7-6.1,6.1-6.1h85.6c3.4,0,6.1,2.7,6.1,6.1v19.5
		C98.8,47.8,96.1,50.6,92.7,50.6z"/>
</g>
<g>
	<path class="st1" d="M171.2,73.1H86.4c-3.4,0-6.1-2.7-6.1-6.1V49c0-3.4,2.7-6.1,6.1-6.1h84.8c3.4,0,6.1,2.7,6.1,6.1v18
		C177.3,70.4,174.6,73.1,171.2,73.1z"/>
</g>
<g>
	<path class="st2" d="M86.4,42.9c-3.4,0-6.1,2.7-6.1,6.1v1.6h12.4c3.4,0,6.1-2.7,6.1-6.1v-1.6H86.4z"/>
</g>
<g class="st3">
	<path d="M11.9,56.3V30.6h5.7v25.7C17.6,56.3,11.9,56.3,11.9,56.3z"/>
	<path d="M34.8,44.9V42c0-0.8-0.3-1.4-0.8-2c-0.6-0.6-1.2-0.8-2-0.8h-2.8c-1.7,0-2.6,0.9-2.8,2.8h-2.9c0.5-3.8,2.4-5.7,5.7-5.7h5.7
		c1.6,0,2.9,0.6,4,1.7c1.1,1.1,1.7,2.5,1.7,4v14.3h-5.7v-2.8c-0.2,1.9-1.2,2.8-2.9,2.8h-2.8c-1.6,0-2.9-0.6-4-1.7
		c-1.1-1.1-1.7-2.5-1.7-4c0-1.6,0.6-2.9,1.7-4s2.5-1.7,4-1.7C29.2,44.9,34.8,44.9,34.8,44.9z M34.8,47.7h-2.9c-0.8,0-1.4,0.3-2,0.8
		c-0.6,0.6-0.8,1.2-0.8,2s0.3,1.5,0.8,2c0.6,0.6,1.2,0.9,2,0.9c0.8,0,1.5-0.3,2-0.9c0.6-0.6,0.8-1.2,0.8-2L34.8,47.7L34.8,47.7z"/>
	<path d="M46.2,36.3h5.7v17.2h2.8c0.8,0,1.5-0.3,2-0.9c0.6-0.6,0.8-1.2,0.8-2V36.3h5.7v17.2h2.9c0.8,0,1.4-0.3,2-0.9
		c0.6-0.6,0.8-1.2,0.8-2V36.3h5.7v10.2c0,2.7-1,5-2.9,6.9s-4.2,2.9-6.9,2.9h-7.4v-0.9c-1.1,0.6-2.4,0.9-4,0.9H46v-20H46.2z"/>
</g>
<g class="st3">
	<path d="M122.4,56.3h-5.7v-2.8c-0.2,1.9-1.2,2.8-2.9,2.8H111c-1.6,0-2.9-0.6-4-1.7c-1.1-1.1-1.7-2.5-1.7-4V42c0-1.6,0.6-2.9,1.7-4
		s2.5-1.7,4-1.7h5.7v-5.7h5.7C122.4,30.6,122.4,56.3,122.4,56.3z M116.7,39.1h-2.9c-0.8,0-1.4,0.3-2,0.8c-0.6,0.6-0.8,1.2-0.8,2v8.6
		c0,0.8,0.3,1.5,0.8,2c0.6,0.6,1.2,0.9,2,0.9s1.5-0.3,2-0.9c0.6-0.6,0.8-1.2,0.8-2L116.7,39.1L116.7,39.1z"/>
	<path d="M128.1,33.4v-2.8h5.7v2.8H128.1z M128.1,56.3v-20h5.7v20H128.1z"/>
	<path d="M142.4,56.3V39.1h-2.9v-2.8h2.9V36c0-1.5,0.5-2.8,1.6-3.8c1.1-1.1,2.4-1.6,3.8-1.6h6v2.8h-3.1c-0.7,0-1.3,0.3-1.8,0.8
		s-0.8,1.1-0.8,1.8v0.3h2.9v2.8h-2.9v17.2H142.4z"/>
	<path d="M159.6,56.3V39.1h-2.9v-2.8h2.9V36c0-1.5,0.5-2.8,1.6-3.8c1.1-1.1,2.4-1.6,3.8-1.6h6v2.8h-3.1c-0.7,0-1.3,0.3-1.8,0.8
		s-0.8,1.1-0.8,1.8v0.3h2.9v2.8h-2.9v17.2H159.6z"/>
</g>
<g class="st3">
	<path d="M210.6,41.7c-1.4,0.5-2.8,0.9-4.2,1.4v10.6c0,1.6-0.3,2.3-1.3,2.7c-0.9,0.5-2.3,0.6-4.7,0.5c-0.1-0.7-0.5-1.8-0.8-2.6
		c1.6,0,3.1,0,3.5,0c0.5,0,0.7-0.2,0.7-0.7V44c-1.6,0.5-3,1-4.4,1.4l-0.7-2.7c1.4-0.3,3.2-0.9,5.1-1.5v-8.3h-4.7v-2.6h4.7v-7.6h2.6
		v7.6h4.2v2.6h-4.2v7.5l3.8-1.2L210.6,41.7z M223.3,54c1.1,0.2,2.3,0.2,3.6,0.2c0.9,0,6.1,0,7.3,0c-0.4,0.6-0.7,1.8-0.8,2.5h-6.6
		c-5.5,0-9.5-1-11.9-6.3c-1.1,2.8-2.5,5.2-4.6,7c-0.4-0.5-1.5-1.3-2.1-1.7c3.4-2.7,5.1-6.9,5.7-12.5l2.6,0.3
		c-0.2,1.4-0.4,2.8-0.8,4.1c1.1,3.2,2.8,4.9,4.9,5.9v-12h-9.3v-2.4H233v2.4h-9.7v4.4h7.9V48h-7.9V54z M230.9,36.2h-17.8V23.9h17.8
		V36.2z M228.2,26h-12.5v3h12.5V26z M228.2,31h-12.5v3h12.5V31z"/>
	<path d="M277.2,45.6V48h-15.7v9.3h-2.8V48h-15.4v-2.4h15.4v-3.2h2.8v3.2H277.2z M273.6,43.9c-3.1-1.2-7.4-2.3-12.3-3.5
		c-4.1,1.7-9.5,2.6-16.5,3.1c-0.3-0.8-0.6-1.7-1.1-2.4c5.2-0.2,9.4-0.7,12.8-1.6c-2.6-0.5-5.2-1-8-1.4c1.2-1.1,2.5-2.3,3.8-3.7h-8.5
		v-2.3h10.6c1.1-1.3,2.2-2.7,3-3.9l2.7,0.8c-0.7,1-1.5,2.1-2.4,3.1h9.3c0.5-0.8,0.8-1.7,1.1-2.6l2.7,0.6c-0.2,0.7-0.5,1.3-0.8,2h6.7
		v2.3h-8c-1.2,1.8-2.7,3.2-4.5,4.4c4.6,1,8.8,2.1,12,3.2L273.6,43.9z M255.6,49.7c-2.3,2.6-6.2,4.9-9.5,6.4
		c-0.5-0.5-1.6-1.5-2.3-1.9c3.4-1.3,7-3.2,9-5.4L255.6,49.7z M247,30.9h-2.7v-5.4H259c-0.5-0.8-1-1.6-1.4-2.2l2.8-0.7
		c0.6,0.8,1.4,2,1.9,2.9h13.9v5.4h-2.7v-3H247V30.9z M255.5,34.5c-0.8,0.8-1.6,1.6-2.3,2.3c2.5,0.4,5,0.8,7.4,1.3
		c2-1,3.6-2.2,4.9-3.6H255.5z M266.4,48.5c3.4,1.5,7.8,4,10.1,5.9l-2.1,2.1c-2.1-1.9-6.5-4.5-9.9-6.1L266.4,48.5z"/>
	<path d="M293.6,39.4c-1.6-1.3-4.6-3-7-4.1l1.5-2.1c2.4,1,5.5,2.6,7.1,3.8L293.6,39.4z M287.9,54.9c2-2.9,5-7.9,7.2-12.2l2.1,1.9
		c-2,4-4.6,8.7-6.9,12.2L287.9,54.9z M290.2,23c2.5,1,5.6,2.7,7.2,4l-1.6,2.4c-1.5-1.3-4.6-3.1-7.1-4.3L290.2,23z M318,57.2
		c-0.4-1.1-1-2.4-1.7-3.8c-14.1,1.7-15.7,2-16.7,2.5c-0.2-0.6-0.6-2.1-1-2.8c0.7-0.2,1.5-1.1,2.4-2.5c0.8-1.1,3.3-5.2,5.2-9.4h-8.5
		v-2.7h9.8v-6.8h-8.1v-2.7h8.1v-6.5h2.8v6.5h8.4v2.7h-8.4v6.8h10v2.7h-10.7c-2,4-4.3,8.1-6.7,11.2l12-1.3c-1.1-1.7-2.2-3.4-3.4-4.9
		l2.3-1.1c2.7,3.3,5.5,7.8,6.6,10.8L318,57.2z"/>
	<path d="M341.3,32c-0.9,1.6-1.9,3.2-3.1,4.7v20.6h-2.7V39.8c-1.4,1.6-2.8,3-4.3,4.1c-0.3-0.6-1-2-1.5-2.7c3.3-2.5,6.9-6.4,9.1-10.3
		L341.3,32z M341,23.8c-2.2,3.3-5.8,6.8-9.1,9c-0.3-0.6-1-1.7-1.5-2.3c3-1.9,6.3-5.1,7.9-7.8L341,23.8z M353.8,40.3v3h8.9v2.4h-8.9
		v3.2h10.8v2.5h-10.8v5.9H351v-5.9h-10.2v-2.5H351v-3.2h-8.5v-2.4h8.5v-3h-8v-2.4h8v-3.2h-9.7v-2.5h9.7V29h-7.9v-2.4h7.9v-4h2.8v4
		h8.4v5.6h2.8v2.5h-2.8v5.6H353.8z M353.8,32.2h5.7V29h-5.7V32.2z M353.8,37.9h5.7v-3.2h-5.7V37.9z"/>
	<path d="M408.4,35.4h-3.6v18.4c0,1.7-0.5,2.5-1.6,3c-1.1,0.5-2.9,0.5-6,0.5c-0.2-0.7-0.6-1.9-1-2.7c2.3,0.1,4.3,0.1,4.9,0
		c0.6,0,0.9-0.2,0.9-0.9V35.4h-9v-2.2h-18.8v-2.4h5.8v-1.9l-1.8,1.2c-0.6-1.4-2.1-3.5-3.5-5.1l1.8-1.1c1.4,1.4,2.8,3.4,3.5,4.8v-6
		h2.3v8.1h2.9v-8.1h2.3v6.2c1.1-1.4,2.7-3.5,3.5-4.9l2.3,1.3c-1.4,1.7-3,3.7-4.2,5l-1.5-0.9v1.6h5.7v2h8.8v-10h2.7v10h3.6V35.4z
		 M385.1,51.6c2.6-0.4,5.3-0.7,8-1.1l0.1,2.5c-6.6,1-13.7,1.9-18.5,2.6l-0.4-2.7c2.3-0.3,5.1-0.6,8.2-1v-4.5h-6v-2.4h6v-3.9h-7v-2.4
		h9.8c0.9-1.6,2-3.8,2.5-5.4l2.5,0.9c-0.8,1.5-1.7,3.2-2.5,4.5h4.3v2.4h-7v3.9h6.2v2.4h-6.2V51.6z M379.5,33.3c1.2,1.3,2.5,3,3,4.3
		l-2.1,1.2c-0.5-1.3-1.7-3.1-2.9-4.4L379.5,33.3z M397.4,47.9c-0.4-2.3-1.8-5.9-3.3-8.7l2.4-0.8c1.6,2.7,3.1,6.3,3.5,8.6L397.4,47.9
		z"/>
	<path d="M417.7,56.2c1.7-1.9,3.7-5,5-7.8l2.7,0.8c-1.3,2.8-3.2,6.1-4.9,8.2L417.7,56.2z M422.3,47.8h-2.7V24.2h11v21.6h-8.3V47.8z
		 M422.3,26.8v6.6h5.7v-6.6H422.3z M428,43.3v-7.4h-5.7v7.4H428z M431.6,49.3c0.5,2.4,0.9,5.5,1,7.4l-2.8,0.4c0-1.9-0.3-5.1-0.8-7.6
		L431.6,49.3z M441.4,26.7c-0.9,4.6-2.9,7.6-8.7,9.4c-0.3-0.6-1-1.6-1.5-2.1c4.9-1.3,6.7-3.7,7.5-7.3h-6.3v-2.5H451
		c0,0,0,0.7-0.1,1.1c-0.3,5.5-0.7,7.7-1.5,8.6c-0.6,0.6-1.2,0.8-2.2,0.9c-0.9,0.1-2.5,0.1-4.3,0c-0.1-0.7-0.3-1.6-0.8-2.3
		c1.7,0.2,3.2,0.2,3.8,0.2c0.6,0,1-0.1,1.2-0.3c0.5-0.5,0.8-2,1-5.5H441.4z M449.9,47h-16.5V36.6h16.5V47z M447.1,38.9h-11.1v5.8
		h11.1V38.9z M439.7,48.9c1,2.4,2.1,5.5,2.5,7.4l-2.8,0.7c-0.4-1.9-1.3-5.2-2.3-7.6L439.7,48.9z M447.3,48.2c1.8,2.5,4,5.8,4.9,8
		l-2.7,1.2c-0.9-2.1-3-5.6-4.7-8.1L447.3,48.2z"/>
	<path d="M494,42.9c-2.2,1.9-4.9,3.8-7.3,5.3c2.6,2.5,5.8,4.3,9.5,5.4c-0.6,0.6-1.4,1.7-1.9,2.4c-7.8-2.6-13.1-8.3-16-16.3
		c-1.6,1.8-3.7,3.5-5.9,5v8.4l9.2-2.8c0.1,0.8,0.3,1.9,0.5,2.4c-10.5,3.4-11.9,3.8-12.8,4.4c-0.2-0.7-0.8-1.9-1.2-2.6
		c0.6-0.3,1.4-1,1.4-2.5v-5.6c-2.2,1.3-4.4,2.3-6.5,3.1c-0.4-0.7-1.2-1.7-1.8-2.3c4.7-1.5,10.1-4.4,13.6-7.6h-12.5v-2.4h14.9v-3.4
		h-11.5v-2.4h11.5v-3.2h-13.4V26h13.4v-3.4h2.8V26h13.8v2.4H480v3.2h12.1v2.4H480v3.4h15v2.4h-13.9c1,2.5,2.4,4.7,4,6.7
		c2.3-1.6,4.9-3.6,6.6-5.2L494,42.9z"/>
</g>
</svg>
