<?xml version="1.0" encoding="utf-8"?>
<!-- Generator: $$$/GeneralStr/196=Adobe Illustrator 27.6.0, SVG Export Plug-In . SVG Version: 6.00 Build 0)  -->
<svg version="1.1" id="圖層_1" xmlns="http://www.w3.org/2000/svg" xmlns:xlink="http://www.w3.org/1999/xlink" x="0px" y="0px"
	 viewBox="0 0 560 560" style="enable-background:new 0 0 560 560;" xml:space="preserve">
<style type="text/css">
	.st0{fill:none;stroke:#FFCC02;stroke-width:30;stroke-linecap:round;stroke-linejoin:round;stroke-miterlimit:10;}
	.st1{fill:#FFCC02;}
</style>
<path class="st0" d="M459,24.5c0,0-102,57-144,165c-23-8-51.1,10.1-55,35c-5,32,17,44,32,49c-2,44,17,105,17,105l140-23l-102,93
	c0,0,37,52,93,87"/>
<circle class="st1" cx="438" cy="192.5" r="25"/>
<path class="st0" d="M147.2,527.3C112.2,497.7,90,453.5,90,404c0-44.6,18.1-84.9,47.3-114.2"/>
<path class="st0" d="M185.5,474.5c-19.4-16.4-31.8-41-31.8-68.5c0-24.7,10-47.1,26.2-63.4"/>
<path class="st0" d="M229.5,428.9c-6-5.1-9.8-12.6-9.8-21.1c0-7.6,3.1-14.5,8.1-19.5"/>
</svg>
