<?xml version="1.0" encoding="utf-8"?>
<!-- Generator: $$$/GeneralStr/196=Adobe Illustrator 27.6.0, SVG Export Plug-In . SVG Version: 6.00 Build 0)  -->
<svg version="1.1" id="圖層_1" xmlns="http://www.w3.org/2000/svg" xmlns:xlink="http://www.w3.org/1999/xlink" x="0px" y="0px"
	 viewBox="0 0 500 80" style="enable-background:new 0 0 500 80;" xml:space="preserve">
<style type="text/css">
	.st0{fill:#875B5B;}
	.st1{fill:#466344;}
	.st2{fill:#F0FFCA;}
	.st3{enable-background:new    ;}
	.st4{fill:#FFFFFF;}
</style>
<g>
	<path class="st0" d="M92.1,52.4H6.5c-3.4,0-6.1-2.7-6.1-6.1V26.8c0-3.4,2.7-6.1,6.1-6.1h85.6c3.4,0,6.1,2.7,6.1,6.1v19.5
		C98.2,49.6,95.5,52.4,92.1,52.4z"/>
</g>
<g>
	<path class="st1" d="M170.6,74.9H85.8c-3.4,0-6.1-2.7-6.1-6.1v-18c0-3.4,2.7-6.1,6.1-6.1h84.8c3.4,0,6.1,2.7,6.1,6.1v18
		C176.7,72.1,174,74.9,170.6,74.9z"/>
</g>
<g>
	<path class="st2" d="M85.8,44.7c-3.4,0-6.1,2.7-6.1,6.1v1.6h12.4c3.4,0,6.1-2.7,6.1-6.1v-1.6H85.8z"/>
</g>
<g class="st3">
	<path class="st4" d="M11.3,58.1V32.4H17v25.7C17,58.1,11.3,58.1,11.3,58.1z"/>
	<path class="st4" d="M34.2,46.7v-2.9c0-0.8-0.3-1.4-0.8-2c-0.6-0.6-1.2-0.8-2-0.8h-2.8c-1.7,0-2.6,0.9-2.8,2.8h-2.9
		c0.5-3.8,2.4-5.7,5.7-5.7h5.7c1.6,0,2.9,0.6,4,1.7c1.1,1.1,1.7,2.5,1.7,4v14.3h-5.7v-2.8c-0.2,1.9-1.2,2.8-2.9,2.8h-2.8
		c-1.6,0-2.9-0.6-4-1.7c-1.1-1.1-1.7-2.5-1.7-4c0-1.6,0.6-2.9,1.7-4s2.5-1.7,4-1.7C28.6,46.7,34.2,46.7,34.2,46.7z M34.2,49.5h-2.9
		c-0.8,0-1.4,0.3-2,0.8c-0.6,0.6-0.8,1.2-0.8,2s0.3,1.5,0.8,2c0.6,0.6,1.2,0.9,2,0.9c0.8,0,1.5-0.3,2-0.9c0.6-0.6,0.8-1.2,0.8-2
		L34.2,49.5L34.2,49.5z"/>
	<path class="st4" d="M45.6,38.1h5.7v17.2h2.8c0.8,0,1.5-0.3,2-0.9c0.6-0.6,0.8-1.2,0.8-2V38.1h5.7v17.2h2.9c0.8,0,1.4-0.3,2-0.9
		c0.6-0.6,0.8-1.2,0.8-2V38.1H74v10.2c0,2.7-1,5-2.9,6.9s-4.2,2.9-6.9,2.9h-7.4v-0.9c-1.1,0.6-2.4,0.9-4,0.9h-7.4v-20H45.6z"/>
</g>
<g class="st3">
	<path class="st4" d="M121.8,58.1h-5.7v-2.8c-0.2,1.9-1.2,2.8-2.9,2.8h-2.8c-1.6,0-2.9-0.6-4-1.7c-1.1-1.1-1.7-2.5-1.7-4v-8.6
		c0-1.6,0.6-2.9,1.7-4s2.5-1.7,4-1.7h5.7v-5.7h5.7C121.8,32.4,121.8,58.1,121.8,58.1z M116.1,40.9h-2.9c-0.8,0-1.4,0.3-2,0.8
		c-0.6,0.6-0.8,1.2-0.8,2v8.6c0,0.8,0.3,1.5,0.8,2c0.6,0.6,1.2,0.9,2,0.9s1.5-0.3,2-0.9c0.6-0.6,0.8-1.2,0.8-2L116.1,40.9
		L116.1,40.9z"/>
	<path class="st4" d="M127.5,35.2v-2.8h5.7v2.8H127.5z M127.5,58.1v-20h5.7v20H127.5z"/>
	<path class="st4" d="M141.8,58.1V40.9h-2.9v-2.8h2.9v-0.3c0-1.5,0.5-2.8,1.6-3.8c1.1-1.1,2.4-1.6,3.8-1.6h6v2.8h-3.1
		c-0.7,0-1.3,0.3-1.8,0.8s-0.8,1.1-0.8,1.8v0.3h2.9v2.8h-2.9v17.2C147.5,58.1,141.8,58.1,141.8,58.1z"/>
	<path class="st4" d="M159,58.1V40.9h-2.9v-2.8h2.9v-0.3c0-1.5,0.5-2.8,1.6-3.8c1.1-1.1,2.4-1.6,3.8-1.6h6v2.8h-3.1
		c-0.7,0-1.3,0.3-1.8,0.8s-0.8,1.1-0.8,1.8v0.3h2.9v2.8h-2.9v17.2C164.7,58.1,159,58.1,159,58.1z"/>
</g>
<g class="st3">
	<path class="st4" d="M212.8,41.7c-1.4,0.5-2.8,0.9-4.2,1.4v10.6c0,1.6-0.3,2.3-1.3,2.7c-0.9,0.5-2.3,0.6-4.7,0.5
		c-0.1-0.7-0.5-1.8-0.8-2.6c1.6,0,3.1,0,3.5,0c0.5,0,0.7-0.2,0.7-0.7V44c-1.6,0.5-3,1-4.4,1.4l-0.7-2.7c1.4-0.3,3.2-0.9,5.1-1.5
		v-8.3h-4.7v-2.6h4.7v-7.6h2.6v7.6h4.2v2.6h-4.2v7.5l3.8-1.2L212.8,41.7z M225.4,54c1.1,0.2,2.3,0.2,3.6,0.2c0.9,0,6.1,0,7.3,0
		c-0.4,0.6-0.7,1.8-0.8,2.5h-6.6c-5.5,0-9.5-1-11.9-6.3c-1.1,2.8-2.5,5.2-4.6,7c-0.4-0.5-1.5-1.3-2.1-1.7c3.4-2.7,5.1-6.9,5.7-12.5
		l2.6,0.3c-0.2,1.4-0.4,2.8-0.8,4.1c1.1,3.2,2.8,4.9,4.9,5.9v-12h-9.3v-2.4h21.7v2.4h-9.7v4.4h7.9V48h-7.9V54z M233,36.2h-17.8V23.9
		H233V36.2z M230.3,26h-12.5v3h12.5V26z M230.3,31h-12.5v3h12.5V31z"/>
	<path class="st4" d="M279.3,45.6V48h-15.7v9.3h-2.8V48h-15.4v-2.4h15.4v-3.2h2.8v3.2H279.3z M275.7,43.9c-3.1-1.2-7.4-2.3-12.3-3.5
		c-4.1,1.7-9.5,2.6-16.5,3.1c-0.3-0.8-0.6-1.7-1.1-2.4c5.2-0.2,9.4-0.7,12.8-1.6c-2.6-0.5-5.2-1-8-1.4c1.2-1.1,2.5-2.3,3.8-3.7h-8.5
		v-2.3h10.6c1.1-1.3,2.2-2.7,3-3.9l2.7,0.8c-0.7,1-1.5,2.1-2.4,3.1h9.3c0.5-0.8,0.8-1.7,1.1-2.6l2.7,0.6c-0.2,0.7-0.5,1.3-0.8,2h6.7
		v2.3h-8c-1.2,1.8-2.7,3.2-4.5,4.4c4.6,1,8.8,2.1,12,3.2L275.7,43.9z M257.7,49.7c-2.3,2.6-6.2,4.9-9.5,6.4
		c-0.5-0.5-1.6-1.5-2.3-1.9c3.4-1.3,7-3.2,9-5.4L257.7,49.7z M249.1,30.9h-2.7v-5.4h14.6c-0.5-0.8-1-1.6-1.4-2.2l2.8-0.7
		c0.6,0.8,1.4,2,1.9,2.9h13.9v5.4h-2.7v-3h-26.5V30.9z M257.6,34.5c-0.8,0.8-1.6,1.6-2.3,2.3c2.5,0.4,5,0.8,7.4,1.3
		c2-1,3.6-2.2,4.9-3.6H257.6z M268.5,48.5c3.4,1.5,7.8,4,10.1,5.9l-2.1,2.1c-2.1-1.9-6.5-4.5-9.9-6.1L268.5,48.5z"/>
	<path class="st4" d="M295.8,39.4c-1.6-1.3-4.6-3-7-4.1l1.5-2.1c2.4,1,5.5,2.6,7.1,3.8L295.8,39.4z M290,54.9c2-2.9,5-7.9,7.2-12.2
		l2.1,1.9c-2,4-4.6,8.7-6.9,12.2L290,54.9z M292.3,23c2.5,1,5.6,2.7,7.2,4l-1.6,2.4c-1.5-1.3-4.6-3.1-7.1-4.3L292.3,23z M320.1,57.2
		c-0.4-1.1-1-2.4-1.7-3.8c-14.1,1.7-15.7,2-16.7,2.5c-0.2-0.6-0.6-2.1-1-2.8c0.7-0.2,1.5-1.1,2.4-2.5c0.8-1.1,3.3-5.2,5.2-9.4h-8.5
		v-2.7h9.8v-6.8h-8.1v-2.7h8.1v-6.5h2.8v6.5h8.4v2.7h-8.4v6.8h10v2.7h-10.7c-2,4-4.3,8.1-6.7,11.2l12-1.3c-1.1-1.7-2.2-3.4-3.4-4.9
		l2.3-1.1c2.7,3.3,5.5,7.8,6.6,10.8L320.1,57.2z"/>
	<path class="st4" d="M343.4,32c-0.9,1.6-1.9,3.2-3.1,4.7v20.6h-2.7V39.8c-1.4,1.6-2.8,3-4.3,4.1c-0.3-0.6-1-2-1.5-2.7
		c3.3-2.5,6.9-6.4,9.1-10.3L343.4,32z M343.1,23.8c-2.2,3.3-5.8,6.8-9.1,9c-0.3-0.6-1-1.7-1.5-2.3c3-1.9,6.3-5.1,7.9-7.8L343.1,23.8
		z M355.9,40.3v3h8.9v2.4h-8.9v3.2h10.8v2.5h-10.8v5.9h-2.8v-5.9h-10.2v-2.5h10.2v-3.2h-8.5v-2.4h8.5v-3h-8v-2.4h8v-3.2h-9.7v-2.5
		h9.7V29h-7.9v-2.4h7.9v-4h2.8v4h8.4v5.6h2.8v2.5h-2.8v5.6H355.9z M355.9,32.2h5.7V29h-5.7V32.2z M355.9,37.9h5.7v-3.2h-5.7V37.9z"
		/>
	<path class="st4" d="M410.5,35.4h-3.6v18.4c0,1.7-0.5,2.5-1.6,3c-1.1,0.5-2.9,0.5-6,0.5c-0.2-0.7-0.6-1.9-1-2.7
		c2.3,0.1,4.3,0.1,4.9,0c0.6,0,0.9-0.2,0.9-0.9V35.4h-9v-2.2h-18.8v-2.4h5.8v-1.9l-1.8,1.2c-0.6-1.4-2.1-3.5-3.5-5.1l1.8-1.1
		c1.4,1.4,2.8,3.4,3.5,4.8v-6h2.3v8.1h2.9v-8.1h2.3v6.2c1.1-1.4,2.7-3.5,3.5-4.9l2.3,1.3c-1.4,1.7-3,3.7-4.2,5l-1.5-0.9v1.6h5.7v2
		h8.8v-10h2.7v10h3.6V35.4z M387.2,51.6c2.6-0.4,5.3-0.7,8-1.1l0.1,2.5c-6.6,1-13.7,1.9-18.5,2.6l-0.4-2.7c2.3-0.3,5.1-0.6,8.2-1
		v-4.5h-6v-2.4h6v-3.9h-7v-2.4h9.8c0.9-1.6,2-3.8,2.5-5.4l2.5,0.9c-0.8,1.5-1.7,3.2-2.5,4.5h4.3v2.4h-7v3.9h6.2v2.4h-6.2V51.6z
		 M381.6,33.3c1.2,1.3,2.5,3,3,4.3l-2.1,1.2c-0.5-1.3-1.7-3.1-2.9-4.4L381.6,33.3z M399.5,47.9c-0.4-2.3-1.8-5.9-3.3-8.7l2.4-0.8
		c1.6,2.7,3.1,6.3,3.5,8.6L399.5,47.9z"/>
	<path class="st4" d="M419.9,56.2c1.7-1.9,3.7-5,5-7.8l2.7,0.8c-1.3,2.8-3.2,6.1-4.9,8.2L419.9,56.2z M424.4,47.8h-2.7V24.2h11v21.6
		h-8.3V47.8z M424.4,26.8v6.6h5.7v-6.6H424.4z M430.1,43.3v-7.4h-5.7v7.4H430.1z M433.7,49.3c0.5,2.4,0.9,5.5,1,7.4l-2.8,0.4
		c0-1.9-0.3-5.1-0.8-7.6L433.7,49.3z M443.5,26.7c-0.9,4.6-2.9,7.6-8.7,9.4c-0.3-0.6-1-1.6-1.5-2.1c4.9-1.3,6.7-3.7,7.5-7.3h-6.3
		v-2.5h18.7c0,0,0,0.7-0.1,1.1c-0.3,5.5-0.7,7.7-1.5,8.6c-0.6,0.6-1.2,0.8-2.2,0.9c-0.9,0.1-2.5,0.1-4.3,0c-0.1-0.7-0.3-1.6-0.8-2.3
		c1.7,0.2,3.2,0.2,3.8,0.2c0.6,0,1-0.1,1.2-0.3c0.5-0.5,0.8-2,1-5.5H443.5z M452,47h-16.5V36.6H452V47z M449.2,38.9h-11.1v5.8h11.1
		V38.9z M441.8,48.9c1,2.4,2.1,5.5,2.5,7.4l-2.8,0.7c-0.4-1.9-1.3-5.2-2.3-7.6L441.8,48.9z M449.4,48.2c1.8,2.5,4,5.8,4.9,8
		l-2.7,1.2c-0.9-2.1-3-5.6-4.7-8.1L449.4,48.2z"/>
	<path class="st4" d="M496.2,42.9c-2.2,1.9-4.9,3.8-7.3,5.3c2.6,2.5,5.8,4.3,9.5,5.4c-0.6,0.6-1.4,1.7-1.9,2.4
		c-7.8-2.6-13.1-8.3-16-16.3c-1.6,1.8-3.7,3.5-5.9,5v8.4l9.2-2.8c0.1,0.8,0.3,1.9,0.5,2.4c-10.5,3.4-11.9,3.8-12.8,4.4
		c-0.2-0.7-0.8-1.9-1.2-2.6c0.6-0.3,1.4-1,1.4-2.5v-5.6c-2.2,1.3-4.4,2.3-6.5,3.1c-0.4-0.7-1.2-1.7-1.8-2.3
		c4.7-1.5,10.1-4.4,13.6-7.6h-12.5v-2.4h14.9v-3.4h-11.5v-2.4h11.5v-3.2h-13.4V26h13.4v-3.4h2.8V26H496v2.4h-13.8v3.2h12.1v2.4
		h-12.1v3.4h15v2.4h-13.9c1,2.5,2.4,4.7,4,6.7c2.3-1.6,4.9-3.6,6.6-5.2L496.2,42.9z"/>
</g>
</svg>
