<?xml version="1.0" encoding="utf-8"?>
<!-- Generator: $$$/GeneralStr/196=Adobe Illustrator 27.6.0, SVG Export Plug-In . SVG Version: 6.00 Build 0)  -->
<svg version="1.1" id="圖層_1" xmlns="http://www.w3.org/2000/svg" xmlns:xlink="http://www.w3.org/1999/xlink" x="0px" y="0px"
	 viewBox="0 0 1366 768" style="enable-background:new 0 0 1366 768;" xml:space="preserve">
<style type="text/css">
	.st0{opacity:0.5;}
	.st1{fill:#F0F7F7;}
</style>
<g class="st0">
	<g>
		<path class="st1" d="M172.8,215.7H98.9c-3.2,0-5.8-2.6-5.8-5.8s2.6-5.8,5.8-5.8h73.9c3.2,0,5.8,2.6,5.8,5.8S176,215.7,172.8,215.7
			z"/>
	</g>
	<g>
		<path class="st1" d="M151.8,237.7c-1.5,0-3-0.6-4.1-1.7c-2.3-2.3-2.3-5.9,0-8.2l18.6-18.6l-18.5-18.5c-2.3-2.3-2.3-5.9,0-8.2
			c2.3-2.3,5.9-2.3,8.2,0l22.6,22.6c2.3,2.3,2.3,5.9,0,8.2L155.9,236C154.8,237.1,153.3,237.7,151.8,237.7z"/>
	</g>
</g>
<g class="st0">
	<g>
		<path class="st1" d="M293.3,450.4H-59.8c-15.3,0-27.6-12.4-27.6-27.6c0-15.3,12.4-27.6,27.6-27.6h353.1
			c15.3,0,27.6,12.4,27.6,27.6C320.9,438,308.6,450.4,293.3,450.4z"/>
	</g>
	<g>
		<path class="st1" d="M190.4,555.6c-7.1,0-14.1-2.7-19.5-8.1c-10.8-10.8-10.8-28.3,0-39.1l89-89l-88.5-88.5
			c-10.8-10.8-10.8-28.3,0-39.1c10.8-10.8,28.3-10.8,39.1,0l108.1,108.1c10.8,10.8,10.8,28.3,0,39.1L210,547.5
			C204.6,552.9,197.5,555.6,190.4,555.6z"/>
	</g>
</g>
<g class="st0">
	<g>
		<path class="st1" d="M434.6,151.7H241.2c-8.4,0-15.1-6.8-15.1-15.1c0-8.4,6.8-15.1,15.1-15.1h193.3c8.4,0,15.1,6.8,15.1,15.1
			C449.7,144.9,442.9,151.7,434.6,151.7z"/>
	</g>
	<g>
		<path class="st1" d="M378,209.3c-3.9,0-7.7-1.5-10.7-4.4c-5.9-5.9-5.9-15.5,0-21.4l48.7-48.7l-48.5-48.5c-5.9-5.9-5.9-15.5,0-21.4
			c5.9-5.9,15.5-5.9,21.4,0l59.2,59.2c5.9,5.9,5.9,15.5,0,21.4l-59.4,59.4C385.7,207.8,381.9,209.3,378,209.3z"/>
	</g>
</g>
<g class="st0">
	<g>
		<path class="st1" d="M671.7,28.1h-73.9c-3.2,0-5.8-2.6-5.8-5.8s2.6-5.8,5.8-5.8h73.9c3.2,0,5.8,2.6,5.8,5.8S674.9,28.1,671.7,28.1
			z"/>
	</g>
	<g>
		<path class="st1" d="M650.7,50.1c-1.5,0-3-0.6-4.1-1.7c-2.3-2.3-2.3-5.9,0-8.2l18.6-18.6L646.7,3.1c-2.3-2.3-2.3-5.9,0-8.2
			c2.3-2.3,5.9-2.3,8.2,0l22.6,22.6c2.3,2.3,2.3,5.9,0,8.2l-22.7,22.7C653.7,49.5,652.2,50.1,650.7,50.1z"/>
	</g>
</g>
<g class="st0">
	<g>
		<path class="st1" d="M1080.7,209.3h-73.9c-3.2,0-5.8-2.6-5.8-5.8c0-3.2,2.6-5.8,5.8-5.8h73.9c3.2,0,5.8,2.6,5.8,5.8
			C1086.4,206.7,1083.9,209.3,1080.7,209.3z"/>
	</g>
	<g>
		<path class="st1" d="M1059.7,231.3c-1.5,0-3-0.6-4.1-1.7c-2.3-2.3-2.3-5.9,0-8.2l18.6-18.6l-18.5-18.5c-2.3-2.3-2.3-5.9,0-8.2
			c2.3-2.3,5.9-2.3,8.2,0l22.6,22.6c2.3,2.3,2.3,5.9,0,8.2l-22.7,22.7C1062.7,230.7,1061.2,231.3,1059.7,231.3z"/>
	</g>
</g>
<g class="st0">
	<g>
		<path class="st1" d="M938.6,350.8h-73.9c-3.2,0-5.8-2.6-5.8-5.8s2.6-5.8,5.8-5.8h73.9c3.2,0,5.8,2.6,5.8,5.8
			S941.8,350.8,938.6,350.8z"/>
	</g>
	<g>
		<path class="st1" d="M917.6,372.8c-1.5,0-3-0.6-4.1-1.7c-2.3-2.3-2.3-5.9,0-8.2l18.6-18.6l-18.5-18.5c-2.3-2.3-2.3-5.9,0-8.2
			c2.3-2.3,5.9-2.3,8.2,0l22.6,22.6c2.3,2.3,2.3,5.9,0,8.2l-22.7,22.7C920.5,372.3,919.1,372.8,917.6,372.8z"/>
	</g>
</g>
<g class="st0">
	<g>
		<path class="st1" d="M698.1,437.9h-73.9c-3.2,0-5.8-2.6-5.8-5.8c0-3.2,2.6-5.8,5.8-5.8h73.9c3.2,0,5.8,2.6,5.8,5.8
			C703.9,435.3,701.3,437.9,698.1,437.9z"/>
	</g>
	<g>
		<path class="st1" d="M677.2,459.9c-1.5,0-3-0.6-4.1-1.7c-2.3-2.3-2.3-5.9,0-8.2l18.6-18.6l-18.5-18.5c-2.3-2.3-2.3-5.9,0-8.2
			c2.3-2.3,5.9-2.3,8.2,0l22.6,22.6c2.3,2.3,2.3,5.9,0,8.2l-22.7,22.7C680.1,459.3,678.6,459.9,677.2,459.9z"/>
	</g>
</g>
<g class="st0">
	<g>
		<path class="st1" d="M895,176.9H679c-9.3,0-16.9-7.6-16.9-16.9c0-9.3,7.6-16.9,16.9-16.9H895c9.3,0,16.9,7.6,16.9,16.9
			C912,169.3,904.4,176.9,895,176.9z"/>
	</g>
	<g>
		<path class="st1" d="M835,241.3c-4.3,0-8.7-1.7-12-5c-6.6-6.6-6.6-17.3,0-23.9l54.4-54.4l-54.2-54.2c-6.6-6.6-6.6-17.3,0-23.9
			c6.6-6.6,17.3-6.6,23.9,0l66.1,66.1c6.6,6.6,6.6,17.3,0,23.9L847,236.3C843.7,239.6,839.3,241.3,835,241.3z"/>
	</g>
</g>
<g class="st0">
	<g>
		<path class="st1" d="M1325.9,380.5h-216.1c-9.3,0-16.9-7.6-16.9-16.9c0-9.3,7.6-16.9,16.9-16.9h216.1c9.3,0,16.9,7.6,16.9,16.9
			C1342.8,372.9,1335.2,380.5,1325.9,380.5z"/>
	</g>
	<g>
		<path class="st1" d="M1262.9,444.8c-4.3,0-8.7-1.7-12-5c-6.6-6.6-6.6-17.3,0-23.9l54.4-54.4l-54.2-54.2c-6.6-6.6-6.6-17.3,0-23.9
			c6.6-6.6,17.3-6.6,23.9,0l66.1,66.1c6.6,6.6,6.6,17.3,0,23.9l-66.4,66.4C1271.6,443.2,1267.3,444.8,1262.9,444.8z"/>
	</g>
</g>
<g class="st0">
	<g>
		<path class="st1" d="M1554.8,582.2h-216.1c-9.3,0-16.9-7.6-16.9-16.9c0-9.3,7.6-16.9,16.9-16.9h216.1c9.3,0,16.9,7.6,16.9,16.9
			C1571.7,574.7,1564.1,582.2,1554.8,582.2z"/>
	</g>
	<g>
		<path class="st1" d="M1491.8,646.6c-4.3,0-8.7-1.7-12-5c-6.6-6.6-6.6-17.3,0-23.9l54.4-54.4l-54.2-54.2c-6.6-6.6-6.6-17.3,0-23.9
			c6.6-6.6,17.3-6.6,23.9,0l66.1,66.1c6.6,6.6,6.6,17.3,0,23.9l-66.4,66.4C1500.5,644.9,1496.1,646.6,1491.8,646.6z"/>
	</g>
</g>
<g class="st0">
	<g>
		<path class="st1" d="M1436.1,146.8h-157.4c-6.8,0-12.3-5.5-12.3-12.3c0-6.8,5.5-12.3,12.3-12.3h157.4c6.8,0,12.3,5.5,12.3,12.3
			C1448.4,141.3,1442.9,146.8,1436.1,146.8z"/>
	</g>
	<g>
		<path class="st1" d="M1390.1,193.7c-3.2,0-6.3-1.2-8.7-3.6c-4.8-4.8-4.8-12.6,0-17.4L1421,133l-39.4-39.4
			c-4.8-4.8-4.8-12.6,0-17.4c4.8-4.8,12.6-4.8,17.4,0l48.2,48.2c4.8,4.8,4.8,12.6,0,17.4l-48.4,48.4
			C1396.4,192.5,1393.2,193.7,1390.1,193.7z"/>
	</g>
</g>
<g class="st0">
	<g>
		<path class="st1" d="M568.3,329.7H411c-6.8,0-12.3-5.5-12.3-12.3c0-6.8,5.5-12.3,12.3-12.3h157.4c6.8,0,12.3,5.5,12.3,12.3
			C580.7,324.2,575.2,329.7,568.3,329.7z"/>
	</g>
	<g>
		<path class="st1" d="M522.9,376.5c-3.2,0-6.3-1.2-8.7-3.6c-4.8-4.8-4.8-12.6,0-17.4l39.7-39.7l-39.4-39.4
			c-4.8-4.8-4.8-12.6,0-17.4c4.8-4.8,12.6-4.8,17.4,0l48.2,48.2c4.8,4.8,4.8,12.6,0,17.4l-48.4,48.4
			C529.2,375.3,526,376.5,522.9,376.5z"/>
	</g>
</g>
<g class="st0">
	<g>
		<path class="st1" d="M1129,494.8h-73.9c-3.2,0-5.8-2.6-5.8-5.8s2.6-5.8,5.8-5.8h73.9c3.2,0,5.8,2.6,5.8,5.8
			S1132.2,494.8,1129,494.8z"/>
	</g>
	<g>
		<path class="st1" d="M1108,516.8c-1.5,0-3-0.6-4.1-1.7c-2.3-2.3-2.3-5.9,0-8.2l18.6-18.6l-18.5-18.5c-2.3-2.3-2.3-5.9,0-8.2
			c2.3-2.3,5.9-2.3,8.2,0l22.6,22.6c2.3,2.3,2.3,5.9,0,8.2l-22.7,22.7C1110.9,516.2,1109.5,516.8,1108,516.8z"/>
	</g>
</g>
<g class="st0">
	<g>
		<path class="st1" d="M261.6,660.1H104.2c-6.8,0-12.3-5.5-12.3-12.3c0-6.8,5.5-12.3,12.3-12.3h157.4c6.8,0,12.3,5.5,12.3,12.3
			C273.9,654.6,268.4,660.1,261.6,660.1z"/>
	</g>
	<g>
		<path class="st1" d="M215.6,707c-3.2,0-6.3-1.2-8.7-3.6c-4.8-4.8-4.8-12.6,0-17.4l39.7-39.7L207,606.8c-4.8-4.8-4.8-12.6,0-17.4
			c4.8-4.8,12.6-4.8,17.4,0l48.2,48.2c4.8,4.8,4.8,12.6,0,17.4l-48.4,48.4C221.9,705.8,218.7,707,215.6,707z"/>
	</g>
</g>
<g class="st0">
	<g>
		<path class="st1" d="M463.3,541.4h-73.9c-3.2,0-5.8-2.6-5.8-5.8c0-3.2,2.6-5.8,5.8-5.8h73.9c3.2,0,5.8,2.6,5.8,5.8
			C469.1,538.8,466.5,541.4,463.3,541.4z"/>
	</g>
	<g>
		<path class="st1" d="M442.4,563.4c-1.5,0-3-0.6-4.1-1.7c-2.3-2.3-2.3-5.9,0-8.2l18.6-18.6l-18.5-18.5c-2.3-2.3-2.3-5.9,0-8.2
			c2.3-2.3,5.9-2.3,8.2,0l22.6,22.6c2.3,2.3,2.3,5.9,0,8.2l-22.7,22.7C445.3,562.8,443.9,563.4,442.4,563.4z"/>
	</g>
</g>
<g class="st0">
	<g>
		<path class="st1" d="M917.5,723.4h-101c-4.4,0-7.9-3.5-7.9-7.9c0-4.4,3.5-7.9,7.9-7.9h101c4.4,0,7.9,3.5,7.9,7.9
			C925.4,719.8,921.9,723.4,917.5,723.4z"/>
	</g>
	<g>
		<path class="st1" d="M888.8,753.4c-2,0-4-0.8-5.6-2.3c-3.1-3.1-3.1-8.1,0-11.2l25.4-25.4l-25.3-25.3c-3.1-3.1-3.1-8.1,0-11.2
			c3.1-3.1,8.1-3.1,11.2,0l30.9,30.9c3.1,3.1,3.1,8.1,0,11.2l-31,31C892.9,752.6,890.9,753.4,888.8,753.4z"/>
	</g>
</g>
<g class="st0">
	<g>
		<path class="st1" d="M717.9,698.6H400.2c-13.7,0-24.9-11.1-24.9-24.9c0-13.7,11.1-24.9,24.9-24.9h317.7
			c13.7,0,24.9,11.1,24.9,24.9C742.7,687.5,731.6,698.6,717.9,698.6z"/>
	</g>
	<g>
		<path class="st1" d="M629.6,793.2c-6.4,0-12.7-2.4-17.6-7.3c-9.7-9.7-9.7-25.5,0-35.2l80-80l-79.6-79.6c-9.7-9.7-9.7-25.5,0-35.2
			c9.7-9.7,25.5-9.7,35.2,0l97.2,97.2c9.7,9.7,9.7,25.5,0,35.2l-97.6,97.6C642.3,790.8,636,793.2,629.6,793.2z"/>
	</g>
</g>
<g class="st0">
	<g>
		<path class="st1" d="M991.8,512.5H788.3c-8.8,0-15.9-7.1-15.9-15.9c0-8.8,7.1-15.9,15.9-15.9h203.6c8.8,0,15.9,7.1,15.9,15.9
			C1007.8,505.4,1000.6,512.5,991.8,512.5z"/>
	</g>
	<g>
		<path class="st1" d="M933,573.2c-4.1,0-8.2-1.6-11.3-4.7c-6.2-6.2-6.2-16.3,0-22.5l51.3-51.3l-51-51c-6.2-6.2-6.2-16.3,0-22.5
			c6.2-6.2,16.3-6.2,22.5,0l62.3,62.3c6.2,6.2,6.2,16.3,0,22.5l-62.6,62.6C941.2,571.6,937.1,573.2,933,573.2z"/>
	</g>
</g>
<g class="st0">
	<g>
		<path class="st1" d="M1288,680.9H993.5c-12.7,0-23.1-10.3-23.1-23.1c0-12.7,10.3-23.1,23.1-23.1H1288c12.7,0,23.1,10.3,23.1,23.1
			C1311,670.6,1300.7,680.9,1288,680.9z"/>
	</g>
	<g>
		<path class="st1" d="M1201.8,768.6c-5.9,0-11.8-2.3-16.3-6.8c-9-9-9-23.6,0-32.6l74.2-74.2l-73.8-73.8c-9-9-9-23.6,0-32.6
			c9-9,23.6-9,32.6,0l90.1,90.1c9,9,9,23.6,0,32.6l-90.5,90.5C1213.6,766.4,1207.7,768.6,1201.8,768.6z"/>
	</g>
</g>
<g class="st0">
	<g>
		<path class="st1" d="M1628.1,297.3h-157.4c-6.8,0-12.3-5.5-12.3-12.3s5.5-12.3,12.3-12.3h157.4c6.8,0,12.3,5.5,12.3,12.3
			S1634.9,297.3,1628.1,297.3z"/>
	</g>
	<g>
		<path class="st1" d="M1582.6,344.1c-3.2,0-6.3-1.2-8.7-3.6c-4.8-4.8-4.8-12.6,0-17.4l39.7-39.7l-39.4-39.4
			c-4.8-4.8-4.8-12.6,0-17.4c4.8-4.8,12.6-4.8,17.4,0l48.2,48.2c4.8,4.8,4.8,12.6,0,17.4l-48.4,48.4
			C1588.9,342.9,1585.7,344.1,1582.6,344.1z"/>
	</g>
</g>
<g class="st0">
	<g>
		<path class="st1" d="M36.1,357.3h-73.9c-3.2,0-5.8-2.6-5.8-5.8s2.6-5.8,5.8-5.8h73.9c3.2,0,5.8,2.6,5.8,5.8S39.3,357.3,36.1,357.3
			z"/>
	</g>
	<g>
		<path class="st1" d="M15.1,379.3c-1.5,0-3-0.6-4.1-1.7c-2.3-2.3-2.3-5.9,0-8.2l18.6-18.6l-18.5-18.5c-2.3-2.3-2.3-5.9,0-8.2
			c2.3-2.3,5.9-2.3,8.2,0l22.6,22.6c2.3,2.3,2.3,5.9,0,8.2l-22.7,22.7C18.1,378.7,16.6,379.3,15.1,379.3z"/>
	</g>
</g>
</svg>
