<?xml version="1.0" encoding="utf-8"?>
<!-- Generator: $$$/GeneralStr/196=Adobe Illustrator 27.6.0, SVG Export Plug-In . SVG Version: 6.00 Build 0)  -->
<svg version="1.1" id="圖層_1" xmlns="http://www.w3.org/2000/svg" xmlns:xlink="http://www.w3.org/1999/xlink" x="0px" y="0px"
	 viewBox="0 0 1366 768" style="enable-background:new 0 0 1366 768;" xml:space="preserve">
<style type="text/css">
	.st0{opacity:0.3;}
	.st1{fill:#FFFFFF;}
</style>
<g class="st0">
	<circle class="st1" cx="1362.7" cy="590.2" r="96"/>
</g>
<g class="st0">
	<circle class="st1" cx="973.4" cy="278.5" r="147.7"/>
</g>
<g class="st0">
	<path class="st1" d="M702.9,907.5c-17.7,0-34.4-6.9-46.8-19.4c-12.5-12.5-19.4-29.2-19.4-46.8s6.9-34.4,19.4-46.8
		c12.5-12.5,29.2-19.4,46.8-19.4c17.7,0,34.4,6.9,46.8,19.4c12.5,12.5,19.4,29.2,19.4,46.8s-6.9,34.4-19.4,46.8
		C737.3,900.6,720.6,907.5,702.9,907.5 M702.9,937.2c53,0,96-43,96-96s-43-96-96-96c-53,0-96,43-96,96S649.9,937.2,702.9,937.2
		L702.9,937.2z"/>
</g>
<g class="st0">
	<path class="st1" d="M1307.1,140.4c-17.7,0-34.4-6.9-46.8-19.4c-12.5-12.5-19.4-29.2-19.4-46.8s6.9-34.4,19.4-46.8
		c12.5-12.5,29.2-19.4,46.8-19.4c17.7,0,34.4,6.9,46.8,19.4c12.5,12.5,19.4,29.2,19.4,46.8s-6.9,34.4-19.4,46.8
		C1341.5,133.5,1324.8,140.4,1307.1,140.4 M1307.1,170.1c53,0,96-43,96-96s-43-96-96-96c-53,0-96,43-96,96
		S1254.1,170.1,1307.1,170.1L1307.1,170.1z"/>
</g>
<g class="st0">
	<path class="st1" d="M719.5,225.9c-20.5,0-37.1-16.6-37.1-37.1s16.6-37.1,37.1-37.1s37.1,16.6,37.1,37.1S740.1,225.9,719.5,225.9
		 M719.5,255.6c36.9,0,66.9-30,66.9-66.9s-30-66.9-66.9-66.9s-66.9,30-66.9,66.9S682.6,255.6,719.5,255.6L719.5,255.6z"/>
</g>
<g class="st0">
	<path class="st1" d="M1161.6,449c-20.5,0-37.1-16.6-37.1-37.1c0-20.5,16.6-37.1,37.1-37.1c20.5,0,37.1,16.6,37.1,37.1
		C1198.7,432.4,1182.1,449,1161.6,449 M1161.6,478.8c36.9,0,66.9-30,66.9-66.9s-30-66.9-66.9-66.9c-36.9,0-66.9,30-66.9,66.9
		S1124.7,478.8,1161.6,478.8L1161.6,478.8z"/>
</g>
<g class="st0">
	<circle class="st1" cx="647.7" cy="600.4" r="136.8"/>
</g>
<g class="st0">
	<circle class="st1" cx="428.4" cy="744.6" r="105.5"/>
</g>
<g class="st0">
	<circle class="st1" cx="-53.1" cy="774.4" r="147.7"/>
</g>
<g class="st0">
	<circle class="st1" cx="973.4" cy="619.3" r="66.9"/>
</g>
<g class="st0">
	<circle class="st1" cx="418" cy="140.4" r="66.9"/>
</g>
<g class="st0">
	<path class="st1" d="M1064.3,869.8c-17.7,0-34.4-6.9-46.8-19.4c-12.5-12.5-19.4-29.2-19.4-46.8s6.9-34.4,19.4-46.8
		c12.5-12.5,29.2-19.4,46.8-19.4c17.7,0,34.4,6.9,46.8,19.4c12.5,12.5,19.4,29.2,19.4,46.8s-6.9,34.4-19.4,46.8
		C1098.6,862.9,1082,869.8,1064.3,869.8 M1064.3,899.5c53,0,96-43,96-96s-43-96-96-96c-53,0-96,43-96,96S1011.3,899.5,1064.3,899.5
		L1064.3,899.5z"/>
</g>
<g class="st0">
	<path class="st1" d="M161.5,263.3c-17.7,0-34.4-6.9-46.8-19.4c-12.5-12.5-19.4-29.2-19.4-46.8s6.9-34.4,19.4-46.8
		c12.5-12.5,29.2-19.4,46.8-19.4s34.4,6.9,46.8,19.4c12.5,12.5,19.4,29.2,19.4,46.8s-6.9,34.4-19.4,46.8
		C195.9,256.4,179.2,263.3,161.5,263.3 M161.5,293c53,0,96-43,96-96s-43-96-96-96s-96,43-96,96S108.5,293,161.5,293L161.5,293z"/>
</g>
<g class="st0">
	<path class="st1" d="M291.1,470.9c-15.8,0-30.6-6.1-41.7-17.3c-11.2-11.2-17.3-26-17.3-41.7c0-15.8,6.1-30.6,17.3-41.7
		c11.2-11.2,26-17.3,41.7-17.3c15.8,0,30.6,6.1,41.7,17.3c11.2,11.2,17.3,26,17.3,41.7c0,15.8-6.1,30.6-17.3,41.7
		C321.7,464.8,306.9,470.9,291.1,470.9 M291.1,559.6c81.5,0,147.7-66.2,147.7-147.7s-66.2-147.7-147.7-147.7
		s-147.7,66.2-147.7,147.7S209.6,559.6,291.1,559.6L291.1,559.6z"/>
</g>
<g class="st0">
	<path class="st1" d="M923.4,811.5c-20.5,0-37.1-16.6-37.1-37.1s16.6-37.1,37.1-37.1s37.1,16.6,37.1,37.1S943.9,811.5,923.4,811.5
		 M923.4,841.2c36.9,0,66.9-30,66.9-66.9s-30-66.9-66.9-66.9s-66.9,30-66.9,66.9S886.5,841.2,923.4,841.2L923.4,841.2z"/>
</g>
<g class="st0">
	<path class="st1" d="M49.2,531.4c-20.5,0-37.1-16.6-37.1-37.1c0-20.5,16.6-37.1,37.1-37.1s37.1,16.6,37.1,37.1
		C86.4,514.7,69.7,531.4,49.2,531.4 M49.2,561.1c36.9,0,66.9-30,66.9-66.9s-30-66.9-66.9-66.9s-66.9,30-66.9,66.9
		S12.3,561.1,49.2,561.1L49.2,561.1z"/>
</g>
</svg>
